<svg version="1.1" id="Layer_1" xmlns="http://www.w3.org/2000/svg" xmlns:xlink="http://www.w3.org/1999/xlink" x="0px" y="0px"
	 width="100%" viewBox="0 0 500 500" enable-background="new 0 0 500 500" xml:space="preserve">
<path fill="#010101" opacity="1.000000" stroke="none" 
	d="
M284.000000,501.000000 
	C189.333359,501.000000 95.166710,501.000000 1.000051,501.000000 
	C1.000034,334.333405 1.000034,167.666794 1.000017,1.000140 
	C167.666565,1.000093 334.333130,1.000093 500.999756,1.000047 
	C500.999847,167.666519 500.999847,334.333038 500.999939,500.999786 
	C428.833344,501.000000 356.666656,501.000000 284.000000,501.000000 
M343.104858,351.270294 
	C343.188507,351.318176 343.272156,351.366028 343.355804,351.413910 
	C343.237213,351.275940 343.118622,351.137970 343.063171,350.246490 
	C343.208923,349.763153 343.354645,349.279816 344.230103,348.567596 
	C346.152588,349.058655 348.075043,349.549713 350.013763,350.778809 
	C350.044952,351.269806 350.076172,351.760803 349.886780,352.907135 
	C348.955963,353.909882 348.025146,354.912659 346.872864,355.163208 
	C345.663269,354.717041 344.453705,354.270905 343.244110,353.824768 
	C343.135834,354.128601 343.027557,354.432465 342.919312,354.736328 
	C344.288635,355.143799 345.657990,355.551239 346.963989,356.846588 
	C346.495178,359.799316 346.026367,362.752075 345.452271,366.367981 
	C372.294067,366.367981 398.145020,366.367981 425.089935,366.367981 
	C420.769226,373.460999 416.982117,379.678101 413.194977,385.895172 
	C415.164795,385.239624 416.461487,384.068817 417.460205,382.683197 
	C450.868469,336.332367 461.751404,285.374023 448.967834,229.481277 
	C441.021759,194.739151 425.540192,163.950424 401.779938,137.320160 
	C385.205444,118.743675 364.823822,105.564590 342.747162,94.564789 
	C295.323547,70.935692 246.072327,64.489311 194.495377,77.904953 
	C177.140015,82.419250 160.651978,88.942673 145.177155,98.146660 
	C164.386093,90.326012 183.629868,82.757248 204.112076,78.821114 
	C224.893890,74.827393 245.722321,73.881172 266.730743,76.193947 
	C287.715820,78.504158 307.710785,84.185226 326.837311,93.182777 
	C349.719391,103.946991 376.268402,121.337723 378.346863,127.780785 
	C376.764923,126.767708 375.518280,126.070564 374.381042,125.226097 
	C351.966705,108.582359 327.072693,96.961060 300.329468,89.362518 
	C260.262573,77.978302 220.134918,75.451744 180.183838,90.066750 
	C166.669006,95.010780 153.880966,101.404526 142.194565,110.258553 
	C175.591324,92.874435 210.741364,84.764458 249.066208,88.588287 
	C191.243713,180.240448 133.874100,271.174774 76.108521,362.736755 
	C74.514091,360.280548 73.289955,358.367523 72.039116,356.472076 
	C58.497948,335.952423 53.190945,312.845428 52.372238,288.815247 
	C50.870247,244.729614 59.903973,203.215225 85.271133,166.209961 
	C86.048019,165.076660 86.609871,163.795929 87.271973,162.583939 
	C86.750435,162.266800 86.228905,161.949646 85.707375,161.632507 
	C79.886276,170.945267 73.483116,179.953415 68.405716,189.655365 
	C63.194435,199.613144 58.560463,210.008789 54.999939,220.656265 
	C51.489441,231.154114 48.976231,242.102615 47.248486,253.046494 
	C45.520935,263.989105 45.307770,275.170776 44.342342,287.364441 
	C40.454792,266.386597 41.079342,246.631317 45.670052,226.948654 
	C50.189484,207.571579 57.155346,189.079132 65.953697,171.200989 
	C64.638222,172.188980 63.814930,173.383850 63.080406,174.630997 
	C53.817310,190.358704 47.501293,207.279572 43.441368,224.996231 
	C38.735771,245.530487 35.353195,266.267883 40.137627,287.283569 
	C43.453072,301.846710 47.137447,316.335052 51.034599,330.754761 
	C61.214783,368.422058 79.335472,401.247620 109.905937,426.424164 
	C138.312576,449.818665 170.314163,465.877014 206.653580,472.026306 
	C238.637360,477.438568 270.329285,473.046387 301.790924,466.517609 
	C319.268188,462.890808 335.286011,456.026978 350.700409,445.914185 
	C354.517944,443.257172 358.335510,440.600189 362.153076,437.943176 
	C361.848755,437.517395 361.544434,437.091644 361.240143,436.665863 
	C357.021729,439.369171 352.803314,442.072449 347.905426,444.905151 
	C342.377594,447.576477 336.994049,450.615326 331.295654,452.851990 
	C312.256165,460.325226 292.164429,463.198486 272.023773,465.600739 
	C239.171661,469.519165 207.217896,467.540070 176.164841,454.113464 
	C143.732925,440.090668 114.266151,422.559265 92.477692,394.015594 
	C90.462486,391.375580 88.553841,388.654236 86.595711,385.970673 
	C88.188202,385.861786 89.005455,386.345367 89.630623,387.009705 
	C105.353722,403.718262 123.363007,417.632660 142.343826,430.391541 
	C162.888336,444.201569 184.659332,455.372223 208.712585,461.712158 
	C215.003174,463.370209 217.108734,462.261353 218.913544,457.618896 
	C163.174774,441.339294 115.191208,413.498474 79.243515,366.888092 
	C81.276810,366.186371 82.921707,366.187195 84.566612,366.186249 
	C107.065361,366.173523 129.564346,366.200531 152.062454,366.074219 
	C153.931107,366.063751 155.793945,365.016937 157.659485,364.451630 
	C157.539154,363.972412 157.418823,363.493225 157.298508,363.014008 
	C156.521759,363.014008 155.745026,363.014008 154.267593,362.524811 
	C157.727478,356.379395 161.187378,350.233978 164.647202,344.088562 
	C167.179886,339.589905 174.593155,338.236938 179.341675,341.722473 
	C180.142563,340.243439 180.915161,338.816650 181.773956,337.230682 
	C170.345184,334.568817 155.681107,336.148529 153.484116,340.352295 
	C156.997208,340.352295 160.332733,340.352295 164.066696,340.352295 
	C160.928528,344.003693 155.926147,347.210968 155.918457,350.430176 
	C155.906158,355.582520 152.513779,358.260162 150.210480,362.066406 
	C143.922791,361.653534 137.618698,361.397186 131.356445,360.741364 
	C129.217010,360.517334 125.708099,359.676910 125.385895,358.447113 
	C124.533508,355.193695 122.547569,355.830322 120.518059,355.825684 
	C112.958763,355.808472 105.399399,355.818817 96.888458,355.818817 
	C148.378067,271.799469 199.315506,188.681137 250.569977,105.045471 
	C301.968536,188.419632 353.100616,271.361572 404.657013,354.991760 
	C395.665131,354.991760 387.583374,354.991760 379.417297,354.991760 
	C379.320160,360.967590 374.917175,360.163086 371.500519,360.425049 
	C364.288971,360.977997 356.802216,358.461212 349.199432,362.090729 
	C351.495087,357.606018 353.790741,353.121338 356.872314,347.101257 
	C351.624847,347.742615 347.547180,348.240997 342.833618,348.731781 
	C341.217651,350.401001 339.601685,352.070221 337.379059,354.137817 
	C336.258148,356.655090 334.887207,359.100220 334.130585,361.722595 
	C333.794403,362.887787 334.697845,364.410614 335.038605,365.771088 
	C336.472076,365.404449 337.905518,365.037811 340.034027,364.725677 
	C340.451202,363.978821 340.868347,363.231964 341.285492,362.485107 
	C340.935303,362.324158 340.585144,362.163208 340.234955,362.002258 
	C339.968414,362.877289 339.701904,363.752319 338.783203,364.013245 
	C338.961945,360.652740 339.140686,357.292267 339.962341,353.863739 
	C340.974915,352.909180 341.987457,351.954590 343.104858,351.270294 
M240.870987,278.149658 
	C240.402237,277.712097 239.933472,277.274567 239.691147,276.154175 
	C240.482056,274.438843 241.272949,272.723541 242.674683,271.202209 
	C242.758682,270.524811 242.842667,269.847412 242.974777,268.496216 
	C244.011078,267.078430 245.047394,265.660675 246.888367,264.483063 
	C246.963654,264.023804 247.038940,263.564545 246.743683,262.316925 
	C247.636566,258.055389 251.143463,259.447540 253.116364,260.190002 
	C255.763535,261.186188 259.064972,263.077942 260.007141,265.420959 
	C261.955414,270.266083 259.573730,274.526825 255.523163,277.688965 
	C260.462952,277.320465 264.913696,272.491730 265.602325,266.725952 
	C266.182587,261.867798 263.134918,256.971313 257.781036,256.214935 
	C251.080032,255.268234 244.211487,255.159561 237.432526,255.339539 
	C235.576370,255.388809 233.782028,257.766876 231.959320,259.076263 
	C232.175293,259.345642 232.391266,259.615021 232.607254,259.884399 
	C235.993591,259.884399 239.379929,259.884399 242.233475,259.884399 
	C239.146744,266.094604 236.220459,272.323090 232.988129,278.388519 
	C229.796646,284.377289 226.295731,290.201202 223.041824,295.902496 
	C233.511353,296.382294 233.511353,296.382294 234.759125,292.167297 
	C233.197891,292.006531 231.660782,291.848236 230.373566,291.715698 
	C232.968674,287.915283 235.403793,284.349152 238.774826,280.889374 
	C242.481888,280.889374 246.188950,280.889374 249.896011,280.889374 
	C249.858459,280.195618 249.820908,279.501831 249.783356,278.808075 
	C246.858231,278.808075 243.933090,278.808075 240.870987,278.149658 
M285.023071,353.990723 
	C285.603973,353.252350 286.323975,352.570953 286.666534,351.734924 
	C286.750641,351.529724 285.602173,350.819458 285.020355,350.341400 
	C284.038391,351.622040 283.056427,352.902679 281.865082,354.863312 
	C280.936127,356.965576 279.606934,358.996826 279.217010,361.194733 
	C278.950989,362.694183 279.997101,364.426453 280.456512,366.054626 
	C281.948608,365.376953 283.440735,364.699280 285.516571,363.972046 
	C284.737244,362.644867 283.957886,361.317688 283.107056,359.216309 
	C283.518616,357.454193 283.930145,355.692047 285.023071,353.990723 
M317.798889,360.915741 
	C319.501129,357.647522 321.459686,354.473450 322.720123,351.042908 
	C323.023895,350.216064 321.015594,348.539734 320.070526,347.254059 
	C319.043945,348.229340 318.017334,349.204620 317.076752,350.758240 
	C317.661835,351.175323 318.246948,351.592377 318.959106,352.750702 
	C318.106720,355.335754 317.254333,357.920807 315.998718,360.994781 
	C316.119904,361.334808 316.241058,361.674866 316.362213,362.014923 
	C316.628754,361.731476 316.895264,361.447998 317.798889,360.915741 
M250.229141,352.025116 
	C248.815521,354.023956 246.765167,355.851471 246.168182,358.070068 
	C245.576584,360.268677 245.620956,363.619690 246.931244,365.052216 
	C248.071808,366.299194 251.367554,365.574860 253.710953,365.721619 
	C248.879669,362.327850 248.158112,360.620056 250.012604,355.525391 
	C250.403229,354.452209 250.910339,353.421417 251.851822,352.012360 
	C251.825470,351.736328 251.799103,351.460327 251.772781,351.184296 
	C251.482376,351.422028 251.191971,351.659729 250.229141,352.025116 
M222.434402,349.074585 
	C222.226395,349.934082 222.018372,350.793579 221.810364,351.653076 
	C222.554092,351.057892 223.297836,350.462738 224.887894,350.009094 
	C225.708817,351.405212 227.252899,352.832184 227.194992,354.190857 
	C227.085815,356.752869 226.053986,359.275513 225.405670,361.814545 
	C227.898010,359.930969 229.967926,357.682587 230.750488,355.051300 
	C231.362793,352.992462 231.178467,349.440277 229.880630,348.422058 
	C228.574768,347.397583 225.456177,348.683624 222.434402,349.074585 
M290.821991,361.829041 
	C290.074402,366.457916 291.906097,367.183960 294.575470,365.746735 
	C295.455444,362.143921 295.797699,359.409302 296.809540,356.950195 
	C297.977783,354.110931 299.736328,351.514557 301.676300,348.025482 
	C297.327179,348.025482 293.696167,348.025482 289.488861,348.070709 
	C289.163696,348.485962 288.838562,348.901245 288.513428,349.316528 
	C289.006622,349.217712 289.499817,349.118896 290.781281,349.042053 
	C292.602692,349.418152 294.424072,349.794220 296.782562,350.281219 
	C294.530334,353.276794 292.755157,355.637878 290.298523,358.115448 
	C290.382050,359.105408 290.465576,360.095398 290.821991,361.829041 
M175.178650,275.099640 
	C180.449463,276.797882 185.720261,278.496124 190.897125,280.761200 
	C190.312943,283.260132 189.728775,285.759064 189.144592,288.257996 
	C189.473953,288.433441 189.803314,288.608887 190.132675,288.784332 
	C191.731003,286.607178 193.329330,284.430054 195.828934,282.136139 
	C199.456329,281.711151 203.083710,281.286163 207.448456,281.371918 
	C207.833008,281.830780 208.217545,282.289642 208.632217,283.526337 
	C208.320236,285.664032 207.634369,287.831512 207.801682,289.931030 
	C207.968140,292.019592 208.476212,295.232544 209.768600,295.791107 
	C211.419250,296.504517 214.006271,295.051208 215.264740,294.751831 
	C214.363846,291.951630 213.310806,290.176147 213.337051,288.416809 
	C213.378738,285.622314 214.087326,282.828491 214.608521,280.052155 
	C216.133163,271.930786 217.704620,263.818176 219.418869,254.860077 
	C211.980286,256.606537 203.865738,251.639160 197.651794,260.231506 
	C203.046768,260.231506 207.499527,260.231506 211.963226,260.231506 
	C211.963226,262.003784 211.963226,263.499054 211.399567,264.775055 
	C210.356308,265.085358 209.313049,265.395660 208.269775,265.705963 
	C208.372345,266.056824 208.474915,266.407654 208.577484,266.758514 
	C209.656265,266.842957 210.735046,266.927368 211.831787,267.784302 
	C210.782257,271.538940 209.732712,275.293579 208.404236,278.946259 
	C208.404236,278.946259 208.107681,278.963074 207.278687,278.987091 
	C206.187302,278.971100 205.095901,278.955078 203.923782,278.269897 
	C203.594650,276.891174 203.265518,275.512451 202.547485,272.504669 
	C201.258621,274.786011 200.625137,275.907288 199.133957,277.194092 
	C197.298264,276.825287 195.395676,276.652222 193.639145,276.051819 
	C187.833145,274.067108 182.123184,271.482635 175.040405,274.471527 
	C175.001938,274.945282 174.963486,275.419006 174.437347,275.983215 
	C174.437347,275.983215 174.300110,275.506561 173.946320,275.769531 
	C173.951935,275.956696 173.957565,276.143890 173.963181,276.331055 
	C174.128433,276.105042 174.293686,275.879059 175.178650,275.099640 
M308.169037,361.676636 
	C308.279572,360.501740 308.390076,359.326874 308.735229,357.596863 
	C309.189331,356.750824 309.991913,355.920654 310.031250,355.055756 
	C310.142639,352.605713 309.941681,350.141510 309.863708,347.682861 
	C308.038422,348.115814 306.213135,348.548737 305.230682,348.781769 
	C305.872437,350.378021 306.755737,351.471497 306.548615,352.288544 
	C306.111298,354.013763 305.148773,355.617584 304.321869,357.230225 
	C301.212341,363.294434 298.070740,369.342224 294.440399,376.364807 
	C301.997681,375.116058 300.866516,368.071503 304.306702,365.421021 
	C306.239410,365.675018 308.014191,365.908295 311.107910,366.314880 
	C309.239624,364.234253 308.311798,363.200958 308.169037,361.676636 
M311.902863,264.809906 
	C312.174561,265.035767 312.446289,265.261658 312.539032,266.194946 
	C309.909546,273.865631 307.065308,281.473785 304.800110,289.250610 
	C304.226807,291.218903 305.500031,293.725067 305.924744,295.984039 
	C308.259094,295.544769 310.593414,295.105499 312.927765,294.666229 
	C312.904419,294.226105 312.881073,293.785980 312.857758,293.345856 
	C308.162842,292.957001 309.671844,289.633667 310.375946,287.604675 
	C313.526703,278.525269 317.036011,269.569885 320.445984,260.581146 
	C321.052368,258.982666 321.801392,257.438293 322.484528,255.868942 
	C322.132294,255.472992 321.780090,255.077042 321.427856,254.681107 
	C319.805908,255.398880 317.805450,255.742401 316.644745,256.916260 
	C314.552307,259.032379 312.962494,261.645508 311.902863,264.809906 
M285.803558,264.244904 
	C284.551086,274.787079 283.298615,285.329285 282.046143,295.871460 
	C282.455322,296.169861 282.864532,296.468262 283.273712,296.766632 
	C284.629395,295.326111 286.652405,294.097595 287.192352,292.397919 
	C288.121216,289.474213 288.190247,286.263397 288.506042,283.161469 
	C289.441406,273.973999 290.321075,264.780792 291.324463,254.550125 
	C282.690674,256.900452 273.761627,251.432434 266.123810,260.232544 
	C273.081482,259.799622 278.659119,259.452545 284.337738,259.099213 
	C284.898041,260.638794 285.391418,261.994446 285.803558,264.244904 
M194.499390,350.154816 
	C196.994125,350.682983 199.488861,351.211151 201.983597,351.739349 
	C201.890656,351.506683 201.797714,351.274017 201.704788,351.041382 
	C204.442474,350.501587 207.180161,349.961792 209.917862,349.422028 
	C210.091873,349.947449 210.265884,350.472870 210.439880,350.998322 
	C208.308868,355.660217 206.177856,360.322144 203.801270,365.521301 
	C207.932373,363.837524 215.016525,352.957123 214.311615,349.580780 
	C214.143997,348.777924 211.853561,348.046173 210.490952,347.946533 
	C208.055603,347.768463 205.582825,348.086914 203.126556,348.214691 
	C199.776352,348.388977 196.425873,348.564392 193.080917,348.812103 
	C192.934814,348.822906 192.842438,349.559204 192.725037,349.957550 
	C193.051300,349.999786 193.377579,350.042023 194.499390,350.154816 
M166.074310,280.659271 
	C161.980682,286.973053 161.987839,291.671112 166.095978,294.912994 
	C170.755844,298.590271 178.857346,297.263977 183.375092,292.084259 
	C169.003830,295.800751 166.738541,293.886261 168.298264,278.946716 
	C167.588196,279.413544 167.070953,279.753601 166.074310,280.659271 
M237.063690,352.322052 
	C235.648300,355.127319 233.957764,357.836945 232.935623,360.778870 
	C232.437698,362.211945 232.730499,364.380676 233.555176,365.628204 
	C234.002853,366.305481 236.316925,365.748962 237.275986,365.748962 
	C236.255447,356.198792 243.531799,350.583008 245.703827,342.860291 
	C241.513870,344.877502 237.371964,346.356201 237.063690,352.322052 
M328.748413,348.164185 
	C327.570038,351.388031 326.406494,354.617432 325.200409,357.830872 
	C324.969391,358.446503 324.351685,358.977173 324.290070,359.585297 
	C324.076721,361.691315 324.030029,363.814178 323.919891,365.930634 
	C325.908875,365.404480 327.897858,364.878357 329.886810,364.352203 
	C329.366852,363.970703 328.846863,363.589233 328.326904,363.207733 
	C328.326904,362.003235 327.933685,360.611450 328.401306,359.629700 
	C329.752655,356.792725 331.779358,354.250458 332.923370,351.348938 
	C334.158173,348.217041 333.262268,346.291351 328.748413,348.164185 
M186.083252,350.317627 
	C184.870331,346.277344 184.419769,346.237213 180.601486,349.046173 
	C180.985657,350.477570 181.643921,351.527222 181.355164,352.096619 
	C180.088287,354.594910 178.217804,356.826050 177.214325,359.406128 
	C176.463455,361.336670 176.702057,363.652039 176.500076,365.796112 
	C178.573044,365.373169 180.645996,364.950226 183.921219,364.282013 
	C181.684769,363.177734 180.830765,362.756042 179.747360,362.221100 
	C181.936722,358.268463 183.928574,354.672394 186.083252,350.317627 
M265.466553,362.112122 
	C267.111664,359.241943 269.063599,356.494293 270.278259,353.452240 
	C270.929260,351.821838 270.311798,349.684875 270.266724,347.776520 
	C268.557953,347.995300 266.849213,348.214111 265.140442,348.432892 
	C265.641724,348.911255 266.142975,349.389618 266.644226,349.867981 
	C266.571686,355.803253 261.446747,360.211334 259.911621,365.704498 
	C260.322540,366.022888 260.733490,366.341248 261.144440,366.659637 
	C262.466400,365.365753 263.788391,364.071869 265.466553,362.112122 
M217.994812,358.029083 
	C218.559464,356.117889 219.124115,354.206665 220.070419,351.003601 
	C215.881454,355.209259 212.918381,358.669525 214.453171,363.541656 
	C214.897232,364.951324 217.620941,365.642853 220.009689,367.095428 
	C219.072144,363.368652 218.500763,361.097382 217.994812,358.029083 
M247.116241,295.334290 
	C252.048828,297.385773 256.529907,296.427460 260.697937,293.286377 
	C256.113739,293.331573 251.169617,289.253143 247.116241,295.334290 
M199.040451,363.093414 
	C196.351944,362.366760 193.663422,361.640106 190.139084,360.687531 
	C189.009338,361.511719 186.934143,363.025665 185.049927,364.400269 
	C188.033371,364.927490 191.009613,365.884186 193.964813,365.823029 
	C195.909515,365.782776 197.823853,364.275391 199.040451,363.093414 
M257.812225,347.417725 
	C256.939178,347.748108 256.066101,348.078491 256.175293,348.037170 
	C257.129791,350.059082 258.013519,351.931122 259.081482,354.193390 
	C260.370911,353.066010 261.866913,351.757996 263.957733,349.929901 
	C261.957489,348.945618 260.258667,348.109650 257.812225,347.417725 
M253.339279,356.825714 
	C254.351578,356.825714 255.363861,356.825714 256.376160,356.825714 
	C256.332947,356.293884 256.289734,355.762085 256.246490,355.230255 
	C255.413177,355.576233 254.579834,355.922211 253.339279,356.825714 
M177.471695,291.770844 
	C177.160507,291.228363 176.849319,290.685852 176.538147,290.143372 
	C176.141861,290.516113 175.745590,290.888855 175.349304,291.261597 
	C175.921951,291.576172 176.494598,291.890778 177.471695,291.770844 
M202.175125,368.764282 
	C202.567703,368.480255 202.960281,368.196198 203.352859,367.912170 
	C203.381485,367.953217 203.410110,367.994263 203.438751,368.035278 
	C203.098999,368.272552 202.759247,368.509796 202.175125,368.764282 
M186.515717,289.142731 
	C186.214081,289.568817 185.912460,289.994934 185.610825,290.421021 
	C186.057510,290.534210 186.504196,290.647400 186.950882,290.760620 
	C187.004166,290.262421 187.057449,289.764252 186.515717,289.142731 
M205.632538,271.313812 
	C205.401459,271.005371 205.170380,270.696930 204.939285,270.388489 
	C204.740860,270.577484 204.542435,270.766479 204.344009,270.955475 
	C204.644440,271.197388 204.944870,271.439301 205.632538,271.313812 
M170.526031,276.633026 
	C170.470490,276.847229 170.414932,277.061432 170.359406,277.275635 
	C170.495819,277.137756 170.632233,276.999878 170.526031,276.633026 
M223.506409,360.474548 
	C223.506409,360.474548 223.504532,360.512299 223.506409,360.474548 
M314.395264,362.479126 
	C314.395264,362.479126 314.560883,362.574402 314.560883,362.574402 
	C314.560883,362.574402 314.538239,362.390411 314.395264,362.479126 
M223.482086,364.592987 
	C223.482086,364.592987 223.409836,364.473450 223.482086,364.592987 
M251.674637,358.522705 
	C251.674637,358.522705 251.464401,358.417175 251.464401,358.417175 
	C251.464401,358.417175 251.504013,358.636749 251.674637,358.522705 
M192.493591,358.525452 
	C192.493591,358.525452 192.495468,358.487701 192.493591,358.525452 
M290.515869,354.422852 
	C290.515869,354.422852 290.573456,354.523956 290.515869,354.422852 
M314.493591,350.618713 
	C314.493591,350.618713 314.592987,350.454803 314.592987,350.454803 
	C314.592987,350.454803 314.397278,350.474335 314.493591,350.618713 
M252.515472,277.423553 
	C252.515472,277.423553 252.571808,277.522461 252.515472,277.423553 
M207.517014,268.416138 
	C207.517014,268.416138 207.582260,268.528381 207.517014,268.416138 
z"/>
<path fill="#F6F6F6" opacity="1.000000" stroke="none" 
	d="
M350.007233,446.016144 
	C335.286011,456.026978 319.268188,462.890808 301.790924,466.517609 
	C270.329285,473.046387 238.637360,477.438568 206.653580,472.026306 
	C170.314163,465.877014 138.312576,449.818665 109.905937,426.424164 
	C79.335472,401.247620 61.214783,368.422058 51.034599,330.754761 
	C47.137447,316.335052 43.453072,301.846710 40.137627,287.283569 
	C35.353195,266.267883 38.735771,245.530487 43.441368,224.996231 
	C47.501293,207.279572 53.817310,190.358704 63.080406,174.630997 
	C63.814930,173.383850 64.638222,172.188980 65.953697,171.200989 
	C57.155346,189.079132 50.189484,207.571579 45.670052,226.948654 
	C41.079342,246.631317 40.454792,266.386597 44.342342,287.364441 
	C45.307770,275.170776 45.520935,263.989105 47.248486,253.046494 
	C48.976231,242.102615 51.489441,231.154114 54.999939,220.656265 
	C58.560463,210.008789 63.194435,199.613144 68.405716,189.655365 
	C73.483116,179.953415 79.886276,170.945267 85.707375,161.632507 
	C86.228905,161.949646 86.750435,162.266800 87.271973,162.583939 
	C86.609871,163.795929 86.048019,165.076660 85.271133,166.209961 
	C59.903973,203.215225 50.870247,244.729614 52.372238,288.815247 
	C53.190945,312.845428 58.497948,335.952423 72.039116,356.472076 
	C73.289955,358.367523 74.514091,360.280548 76.108521,362.736755 
	C133.874100,271.174774 191.243713,180.240448 249.066208,88.588287 
	C210.741364,84.764458 175.591324,92.874435 142.194565,110.258553 
	C153.880966,101.404526 166.669006,95.010780 180.183838,90.066750 
	C220.134918,75.451744 260.262573,77.978302 300.329468,89.362518 
	C327.072693,96.961060 351.966705,108.582359 374.381042,125.226097 
	C375.518280,126.070564 376.764923,126.767708 378.346863,127.780785 
	C376.268402,121.337723 349.719391,103.946991 326.837311,93.182777 
	C307.710785,84.185226 287.715820,78.504158 266.730743,76.193947 
	C245.722321,73.881172 224.893890,74.827393 204.112076,78.821114 
	C183.629868,82.757248 164.386093,90.326012 145.177155,98.146660 
	C160.651978,88.942673 177.140015,82.419250 194.495377,77.904953 
	C246.072327,64.489311 295.323547,70.935692 342.747162,94.564789 
	C364.823822,105.564590 385.205444,118.743675 401.779938,137.320160 
	C425.540192,163.950424 441.021759,194.739151 448.967834,229.481277 
	C461.751404,285.374023 450.868469,336.332367 417.460205,382.683197 
	C416.461487,384.068817 415.164795,385.239624 413.194977,385.895172 
	C416.982117,379.678101 420.769226,373.460999 425.089935,366.367981 
	C398.145020,366.367981 372.294067,366.367981 345.452271,366.367981 
	C346.026367,362.752075 346.495178,359.799316 346.959229,356.385742 
	C346.954468,355.924927 347.094330,355.915436 347.094330,355.915436 
	C348.025146,354.912659 348.955963,353.909882 350.325958,352.382507 
	C350.509277,351.252167 350.253418,350.646454 349.997528,350.040771 
	C348.075043,349.549713 346.152588,349.058655 343.821655,348.689148 
	C343.413177,348.810699 343.469482,348.739380 343.469482,348.739380 
	C347.547180,348.240997 351.624847,347.742615 356.872314,347.101257 
	C353.790741,353.121338 351.495087,357.606018 349.199432,362.090729 
	C356.802216,358.461212 364.288971,360.977997 371.500519,360.425049 
	C374.917175,360.163086 379.320160,360.967590 379.417297,354.991760 
	C387.583374,354.991760 395.665131,354.991760 404.657013,354.991760 
	C353.100616,271.361572 301.968536,188.419632 250.569977,105.045471 
	C199.315506,188.681137 148.378067,271.799469 96.888458,355.818817 
	C105.399399,355.818817 112.958763,355.808472 120.518059,355.825684 
	C122.547569,355.830322 124.533508,355.193695 125.385895,358.447113 
	C125.708099,359.676910 129.217010,360.517334 131.356445,360.741364 
	C137.618698,361.397186 143.922791,361.653534 150.872772,362.368225 
	C152.679474,362.784668 153.823883,362.899353 154.968292,363.014008 
	C155.745026,363.014008 156.521759,363.014008 157.298508,363.014008 
	C157.418823,363.493225 157.539154,363.972412 157.659485,364.451630 
	C155.793945,365.016937 153.931107,366.063751 152.062454,366.074219 
	C129.564346,366.200531 107.065361,366.173523 84.566612,366.186249 
	C82.921707,366.187195 81.276810,366.186371 79.243515,366.888092 
	C115.191208,413.498474 163.174774,441.339294 218.913544,457.618896 
	C217.108734,462.261353 215.003174,463.370209 208.712585,461.712158 
	C184.659332,455.372223 162.888336,444.201569 142.343826,430.391541 
	C123.363007,417.632660 105.353722,403.718262 89.630623,387.009705 
	C89.005455,386.345367 88.188202,385.861786 86.595711,385.970673 
	C88.553841,388.654236 90.462486,391.375580 92.477692,394.015594 
	C114.266151,422.559265 143.732925,440.090668 176.164841,454.113464 
	C207.217896,467.540070 239.171661,469.519165 272.023773,465.600739 
	C292.164429,463.198486 312.256165,460.325226 331.295654,452.851990 
	C336.994049,450.615326 342.377594,447.576477 348.533020,444.987732 
	C349.442810,445.385620 349.725006,445.700867 350.007233,446.016144 
M254.251556,89.737129 
	C254.005096,89.651772 253.758621,89.566422 253.512161,89.481064 
	C253.675842,89.653152 253.839539,89.825233 254.027466,90.697258 
	C311.295624,181.471542 368.563782,272.245819 426.264557,363.705872 
	C449.616150,317.290619 452.855072,270.137970 439.427032,221.472870 
	C438.529236,224.723282 437.631470,227.973709 436.457245,232.224960 
	C435.323425,229.441788 434.585236,227.623459 433.842285,225.807098 
	C421.254120,195.031265 405.263947,166.567841 379.750702,144.312973 
	C347.362579,116.061226 309.812134,98.841698 267.712616,91.210747 
	C263.170380,90.387421 258.469452,90.439568 254.251556,89.737129 
M380.095123,127.620270 
	C380.109222,128.268753 380.123352,128.917221 380.137451,129.565689 
	C380.678223,129.512283 381.219025,129.458862 381.759827,129.405441 
	C381.495239,128.902039 381.230652,128.398621 380.095123,127.620270 
M86.500000,385.000000 
	C86.633331,384.799988 86.766670,384.600006 86.900002,384.399994 
	C86.599998,384.433319 86.300003,384.466675 86.500000,385.000000 
z"/>
<path fill="#ECECEC" opacity="1.000000" stroke="none" 
	d="
M237.838928,280.783020 
	C235.403793,284.349152 232.968674,287.915283 230.373566,291.715698 
	C231.660782,291.848236 233.197891,292.006531 234.759125,292.167297 
	C233.511353,296.382294 233.511353,296.382294 223.041824,295.902496 
	C226.295731,290.201202 229.796646,284.377289 232.988129,278.388519 
	C236.220459,272.323090 239.146744,266.094604 242.233475,259.884399 
	C239.379929,259.884399 235.993591,259.884399 232.607254,259.884399 
	C232.391266,259.615021 232.175293,259.345642 231.959320,259.076263 
	C233.782028,257.766876 235.576370,255.388809 237.432526,255.339539 
	C244.211487,255.159561 251.080032,255.268234 257.781036,256.214935 
	C263.134918,256.971313 266.182587,261.867798 265.602325,266.725952 
	C264.913696,272.491730 260.462952,277.320465 255.523163,277.688965 
	C259.573730,274.526825 261.955414,270.266083 260.007141,265.420959 
	C259.064972,263.077942 255.763535,261.186188 253.116364,260.190002 
	C251.143463,259.447540 247.636566,258.055389 246.712479,262.839172 
	C246.482086,263.655243 246.282898,263.949097 246.083710,264.242920 
	C245.047394,265.660675 244.011078,267.078430 242.717316,268.976929 
	C242.327866,269.974487 242.195862,270.491333 242.063858,271.008209 
	C241.272949,272.723541 240.482056,274.438843 239.389175,276.721680 
	C239.017822,277.859680 238.948441,278.430145 238.625092,279.113647 
	C238.193710,279.745453 238.016312,280.264252 237.838928,280.783020 
z"/>
<path fill="#F1F1F1" opacity="1.000000" stroke="none" 
	d="
M208.683197,279.048218 
	C209.732712,275.293579 210.782257,271.538940 211.954163,267.074524 
	C212.038773,265.907959 212.001007,265.451172 211.963226,264.994354 
	C211.963226,263.499054 211.963226,262.003784 211.963226,260.231506 
	C207.499527,260.231506 203.046768,260.231506 197.651794,260.231506 
	C203.865738,251.639160 211.980286,256.606537 219.418869,254.860077 
	C217.704620,263.818176 216.133163,271.930786 214.608521,280.052155 
	C214.087326,282.828491 213.378738,285.622314 213.337051,288.416809 
	C213.310806,290.176147 214.363846,291.951630 215.264740,294.751831 
	C214.006271,295.051208 211.419250,296.504517 209.768600,295.791107 
	C208.476212,295.232544 207.968140,292.019592 207.801682,289.931030 
	C207.634369,287.831512 208.320236,285.664032 208.756363,282.873291 
	C208.814728,281.162872 208.748962,280.105560 208.683197,279.048218 
z"/>
<path fill="#EFEFEF" opacity="1.000000" stroke="none" 
	d="
M285.844177,263.797516 
	C285.391418,261.994446 284.898041,260.638794 284.337738,259.099213 
	C278.659119,259.452545 273.081482,259.799622 266.123810,260.232544 
	C273.761627,251.432434 282.690674,256.900452 291.324463,254.550125 
	C290.321075,264.780792 289.441406,273.973999 288.506042,283.161469 
	C288.190247,286.263397 288.121216,289.474213 287.192352,292.397919 
	C286.652405,294.097595 284.629395,295.326111 283.273712,296.766632 
	C282.864532,296.468262 282.455322,296.169861 282.046143,295.871460 
	C283.298615,285.329285 284.551086,274.787079 285.844177,263.797516 
z"/>
<path fill="#ECECEC" opacity="1.000000" stroke="none" 
	d="
M311.162720,264.051025 
	C312.962494,261.645508 314.552307,259.032379 316.644745,256.916260 
	C317.805450,255.742401 319.805908,255.398880 321.427856,254.681107 
	C321.780090,255.077042 322.132294,255.472992 322.484528,255.868942 
	C321.801392,257.438293 321.052368,258.982666 320.445984,260.581146 
	C317.036011,269.569885 313.526703,278.525269 310.375946,287.604675 
	C309.671844,289.633667 308.162842,292.957001 312.857758,293.345856 
	C312.881073,293.785980 312.904419,294.226105 312.927765,294.666229 
	C310.593414,295.105499 308.259094,295.544769 305.924744,295.984070 
	C305.500031,293.725067 304.226807,291.218903 304.800110,289.250610 
	C307.065308,281.473785 309.909546,273.865631 312.801941,265.502625 
	C312.899078,264.088715 312.733307,263.367157 312.567505,262.645569 
	C312.099213,263.114044 311.630951,263.582550 311.162720,264.051025 
z"/>
<path fill="#DDDDDD" opacity="1.000000" stroke="none" 
	d="
M154.617950,362.769409 
	C153.823883,362.899353 152.679474,362.784668 151.293243,362.419922 
	C152.513779,358.260162 155.906158,355.582520 155.918457,350.430176 
	C155.926147,347.210968 160.928528,344.003693 164.066696,340.352295 
	C160.332733,340.352295 156.997208,340.352295 153.484116,340.352295 
	C155.681107,336.148529 170.345184,334.568817 181.773956,337.230682 
	C180.915161,338.816650 180.142563,340.243439 179.341675,341.722473 
	C174.593155,338.236938 167.179886,339.589905 164.647202,344.088562 
	C161.187378,350.233978 157.727478,356.379395 154.617950,362.769409 
z"/>
<path fill="#E6E6E6" opacity="1.000000" stroke="none" 
	d="
M307.383972,362.167694 
	C308.311798,363.200958 309.239624,364.234253 311.107910,366.314880 
	C308.014191,365.908295 306.239410,365.675018 304.306702,365.421021 
	C300.866516,368.071503 301.997681,375.116058 294.440399,376.364807 
	C298.070740,369.342224 301.212341,363.294434 304.321869,357.230225 
	C305.148773,355.617584 306.111298,354.013763 306.548615,352.288544 
	C306.755737,351.471497 305.872437,350.378021 305.230682,348.781769 
	C306.213135,348.548737 308.038422,348.115814 309.863708,347.682861 
	C309.941681,350.141510 310.142639,352.605713 310.031250,355.055756 
	C309.991913,355.920654 309.189331,356.750824 308.362518,358.107544 
	C307.787872,359.801361 307.585907,360.984528 307.383972,362.167694 
z"/>
<path fill="#EAEAEA" opacity="1.000000" stroke="none" 
	d="
M175.867722,274.361511 
	C182.123184,271.482635 187.833145,274.067108 193.639145,276.051819 
	C195.395676,276.652222 197.298264,276.825287 199.619308,277.484314 
	C201.404617,278.162720 202.704559,278.550873 204.004517,278.939056 
	C205.095901,278.955078 206.187302,278.971100 207.691681,279.297211 
	C207.640152,280.025269 207.175629,280.443207 206.711105,280.861145 
	C203.083710,281.286163 199.456329,281.711151 195.318085,281.853943 
	C193.535172,281.112640 192.263107,280.653503 190.991058,280.194336 
	C185.720261,278.496124 180.449463,276.797882 174.757050,275.363647 
	C174.335434,275.627625 174.300110,275.506561 174.300110,275.506561 
	C174.300110,275.506561 174.437347,275.983215 174.940063,275.778870 
	C175.584427,275.170197 175.726074,274.765839 175.867722,274.361511 
z"/>
<path fill="#E2E2E2" opacity="1.000000" stroke="none" 
	d="
M194.101624,350.119537 
	C193.377579,350.042023 193.051300,349.999786 192.725037,349.957550 
	C192.842438,349.559204 192.934814,348.822906 193.080917,348.812103 
	C196.425873,348.564392 199.776352,348.388977 203.126556,348.214691 
	C205.582825,348.086914 208.055603,347.768463 210.490952,347.946533 
	C211.853561,348.046173 214.143997,348.777924 214.311615,349.580780 
	C215.016525,352.957123 207.932373,363.837524 203.801270,365.521301 
	C206.177856,360.322144 208.308868,355.660217 210.439880,350.998322 
	C210.265884,350.472870 210.091873,349.947449 209.917862,349.422028 
	C207.180161,349.961792 204.442474,350.501587 201.704788,351.041382 
	C201.797714,351.274017 201.890656,351.506683 201.983597,351.739349 
	C199.488861,351.211151 196.994125,350.682983 194.101624,350.119537 
z"/>
<path fill="#E8E8E8" opacity="1.000000" stroke="none" 
	d="
M166.314011,280.376465 
	C167.070953,279.753601 167.588196,279.413544 168.298264,278.946716 
	C166.738541,293.886261 169.003830,295.800751 183.375092,292.084259 
	C178.857346,297.263977 170.755844,298.590271 166.095978,294.912994 
	C161.987839,291.671112 161.980682,286.973053 166.314011,280.376465 
z"/>
<path fill="#E4E4E4" opacity="1.000000" stroke="none" 
	d="
M237.283188,352.005524 
	C237.371964,346.356201 241.513870,344.877502 245.703827,342.860291 
	C243.531799,350.583008 236.255447,356.198792 237.275986,365.748962 
	C236.316925,365.748962 234.002853,366.305481 233.555176,365.628204 
	C232.730499,364.380676 232.437698,362.211945 232.935623,360.778870 
	C233.957764,357.836945 235.648300,355.127319 237.283188,352.005524 
z"/>
<path fill="#E2E2E2" opacity="1.000000" stroke="none" 
	d="
M290.065155,348.025482 
	C293.696167,348.025482 297.327179,348.025482 301.676300,348.025482 
	C299.736328,351.514557 297.977783,354.110931 296.809540,356.950195 
	C295.797699,359.409302 295.455444,362.143921 294.575470,365.746735 
	C291.906097,367.183960 290.074402,366.457916 290.669037,361.366211 
	C290.516083,360.903351 290.512817,360.717804 290.779755,360.526001 
	C291.013489,359.893646 290.980316,359.453064 291.065063,358.762665 
	C291.115356,358.341583 291.047668,358.170288 290.979980,357.998962 
	C292.755157,355.637878 294.530334,353.276794 296.782562,350.281219 
	C294.424072,349.794220 292.602692,349.418152 290.365662,348.779541 
	C289.988403,348.353210 290.026764,348.189362 290.065155,348.025482 
z"/>
<path fill="#E2E2E2" opacity="1.000000" stroke="none" 
	d="
M329.068573,348.022217 
	C333.262268,346.291351 334.158173,348.217041 332.923370,351.348938 
	C331.779358,354.250458 329.752655,356.792725 328.401306,359.629700 
	C327.933685,360.611450 328.326904,362.003235 328.326904,363.207733 
	C328.846863,363.589233 329.366852,363.970703 329.886810,364.352203 
	C327.897858,364.878357 325.908875,365.404480 323.919891,365.930634 
	C324.030029,363.814178 324.076721,361.691315 324.290070,359.585297 
	C324.351685,358.977173 324.969391,358.446503 325.200409,357.830872 
	C326.406494,354.617432 327.570038,351.388031 329.068573,348.022217 
z"/>
<path fill="#E6E6E6" opacity="1.000000" stroke="none" 
	d="
M186.001831,350.696960 
	C183.928574,354.672394 181.936722,358.268463 179.747360,362.221100 
	C180.830765,362.756042 181.684769,363.177734 183.921219,364.282013 
	C180.645996,364.950226 178.573044,365.373169 176.500092,365.796082 
	C176.702057,363.652039 176.463455,361.336670 177.214325,359.406128 
	C178.217804,356.826050 180.088287,354.594910 181.355164,352.096619 
	C181.643921,351.527222 180.985657,350.477570 180.601486,349.046173 
	C184.419769,346.237213 184.870331,346.277344 186.001831,350.696960 
z"/>
<path fill="#E4E4E4" opacity="1.000000" stroke="none" 
	d="
M265.288452,362.445038 
	C263.788391,364.071869 262.466400,365.365753 261.144440,366.659637 
	C260.733490,366.341248 260.322540,366.022888 259.911621,365.704498 
	C261.446747,360.211334 266.571686,355.803253 266.644226,349.867981 
	C266.142975,349.389618 265.641724,348.911255 265.140442,348.432892 
	C266.849213,348.214111 268.557953,347.995300 270.266724,347.776520 
	C270.311798,349.684875 270.929260,351.821838 270.278259,353.452240 
	C269.063599,356.494293 267.111664,359.241943 265.288452,362.445038 
z"/>
<path fill="#DDDDDD" opacity="1.000000" stroke="none" 
	d="
M223.131897,348.957214 
	C225.456177,348.683624 228.574768,347.397583 229.880630,348.422058 
	C231.178467,349.440277 231.362793,352.992462 230.750488,355.051300 
	C229.967926,357.682587 227.898010,359.930969 225.405670,361.814545 
	C226.053986,359.275513 227.085815,356.752869 227.194992,354.190857 
	C227.252899,352.832184 225.708817,351.405212 224.410156,349.706482 
	C223.749954,349.103729 223.483124,348.954865 223.131897,348.957214 
z"/>
<path fill="#E4E4E4" opacity="1.000000" stroke="none" 
	d="
M251.363770,352.371094 
	C250.910339,353.421417 250.403229,354.452209 250.012604,355.525391 
	C248.158112,360.620056 248.879669,362.327850 253.710953,365.721619 
	C251.367554,365.574860 248.071808,366.299194 246.931244,365.052216 
	C245.620956,363.619690 245.576584,360.268677 246.168182,358.070068 
	C246.765167,355.851471 248.815521,354.023956 250.680847,352.079742 
	C251.132553,352.134369 251.363770,352.371094 251.363770,352.371094 
z"/>
<path fill="#E7E7E7" opacity="1.000000" stroke="none" 
	d="
M217.962097,358.427612 
	C218.500763,361.097382 219.072144,363.368652 220.009689,367.095428 
	C217.620941,365.642853 214.897232,364.951324 214.453171,363.541656 
	C212.918381,358.669525 215.881454,355.209259 220.070419,351.003601 
	C219.124115,354.206665 218.559464,356.117889 217.962097,358.427612 
z"/>
<path fill="#E8E8E8" opacity="1.000000" stroke="none" 
	d="
M247.094681,294.933075 
	C251.169617,289.253143 256.113739,293.331573 260.697937,293.286377 
	C256.529907,296.427460 252.048828,297.385773 247.094681,294.933075 
z"/>
<path fill="#DDDDDD" opacity="1.000000" stroke="none" 
	d="
M316.990753,350.179901 
	C318.017334,349.204620 319.043945,348.229340 320.070526,347.254059 
	C321.015594,348.539734 323.023895,350.216064 322.720123,351.042908 
	C321.459686,354.473450 319.501129,357.647522 317.295929,360.869080 
	C316.662659,360.716888 316.532318,360.611359 316.401947,360.505859 
	C317.254333,357.920807 318.106720,355.335754 318.959351,352.023621 
	C318.303314,350.924316 317.647034,350.552124 316.990753,350.179901 
z"/>
<path fill="#DDDDDD" opacity="1.000000" stroke="none" 
	d="
M199.396118,363.259216 
	C197.823853,364.275391 195.909515,365.782776 193.964813,365.823029 
	C191.009613,365.884186 188.033371,364.927490 185.049927,364.400269 
	C186.934143,363.025665 189.009338,361.511719 190.139084,360.687531 
	C193.663422,361.640106 196.351944,362.366760 199.396118,363.259216 
z"/>
<path fill="#E7E7E7" opacity="1.000000" stroke="none" 
	d="
M339.338989,364.671143 
	C337.905518,365.037811 336.472076,365.404449 335.038605,365.771118 
	C334.697845,364.410614 333.794403,362.887787 334.130585,361.722595 
	C334.887207,359.100220 336.258148,356.655090 338.010834,354.021301 
	C338.868195,353.913788 339.093811,353.922760 339.319458,353.931763 
	C339.140686,357.292267 338.961945,360.652740 339.139771,364.301178 
	C339.496307,364.589111 339.338989,364.671173 339.338989,364.671143 
z"/>
<path fill="#E7E7E7" opacity="1.000000" stroke="none" 
	d="
M284.932831,364.021606 
	C283.440735,364.699280 281.948608,365.376953 280.456512,366.054626 
	C279.997101,364.426453 278.950989,362.694183 279.217010,361.194733 
	C279.606934,358.996826 280.936127,356.965576 282.343445,354.446350 
	C283.328430,353.996216 283.835052,353.963074 284.341675,353.929932 
	C283.930145,355.692047 283.518616,357.454193 283.029388,359.974670 
	C283.612091,361.829224 284.272461,362.925415 284.932831,364.021606 
z"/>
<path fill="#DDDDDD" opacity="1.000000" stroke="none" 
	d="
M350.353821,445.965149 
	C349.725006,445.700867 349.442810,445.385620 348.872742,444.923035 
	C352.803314,442.072449 357.021729,439.369171 361.240143,436.665863 
	C361.544434,437.091644 361.848755,437.517395 362.153076,437.943176 
	C358.335510,440.600189 354.517944,443.257172 350.353821,445.965149 
z"/>
<path fill="#E4E4E4" opacity="1.000000" stroke="none" 
	d="
M258.186035,347.345703 
	C260.258667,348.109650 261.957489,348.945618 263.957733,349.929901 
	C261.866913,351.757996 260.370911,353.066010 259.081482,354.193390 
	C258.013519,351.931122 257.129791,350.059082 256.175293,348.037170 
	C256.066101,348.078491 256.939178,347.748108 258.186035,347.345703 
z"/>
<path fill="#080808" opacity="1.000000" stroke="none" 
	d="
M190.944092,280.477783 
	C192.263107,280.653503 193.535172,281.112640 194.867447,281.912354 
	C193.329330,284.430054 191.731003,286.607178 190.132675,288.784332 
	C189.803314,288.608887 189.473953,288.433441 189.144592,288.257996 
	C189.728775,285.759064 190.312943,283.260132 190.944092,280.477783 
z"/>
<path fill="#7B7B7B" opacity="1.000000" stroke="none" 
	d="
M238.306885,280.836182 
	C238.016312,280.264252 238.193710,279.745453 238.980774,279.084229 
	C240.062927,278.897186 240.535446,278.852631 241.007950,278.808075 
	C243.933090,278.808075 246.858231,278.808075 249.783356,278.808075 
	C249.820908,279.501831 249.858459,280.195618 249.896011,280.889374 
	C246.188950,280.889374 242.481888,280.889374 238.306885,280.836182 
z"/>
<path fill="#0E0E0E" opacity="1.000000" stroke="none" 
	d="
M203.964142,278.604492 
	C202.704559,278.550873 201.404617,278.162720 200.048157,277.401550 
	C200.625137,275.907288 201.258621,274.786011 202.547485,272.504669 
	C203.265518,275.512451 203.594650,276.891174 203.964142,278.604492 
z"/>
<path fill="#0B0B0B" opacity="1.000000" stroke="none" 
	d="
M284.682373,353.960327 
	C283.835052,353.963074 283.328430,353.996216 282.448120,354.106323 
	C283.056427,352.902679 284.038391,351.622040 285.020355,350.341400 
	C285.602173,350.819458 286.750641,351.529724 286.666534,351.734924 
	C286.323975,352.570953 285.603973,353.252350 284.682373,353.960327 
z"/>
<path fill="#0B0B0B" opacity="1.000000" stroke="none" 
	d="
M339.640900,353.897766 
	C339.093811,353.922760 338.868195,353.913788 338.314178,353.822144 
	C339.601685,352.070221 341.217651,350.401001 343.151550,348.735596 
	C343.469482,348.739380 343.413177,348.810699 343.456787,348.803589 
	C343.354645,349.279816 343.208923,349.763153 343.031586,350.623230 
	C341.987457,351.954590 340.974915,352.909180 339.640900,353.897766 
z"/>
<path fill="#0B0B0B" opacity="1.000000" stroke="none" 
	d="
M285.224701,363.996826 
	C284.272461,362.925415 283.612091,361.829224 283.065125,360.361755 
	C283.957886,361.317688 284.737244,362.644867 285.224701,363.996826 
z"/>
<path fill="#080808" opacity="1.000000" stroke="none" 
	d="
M222.783142,349.015900 
	C223.483124,348.954865 223.749954,349.103729 223.987000,349.635712 
	C223.297836,350.462738 222.554092,351.057892 221.810364,351.653076 
	C222.018372,350.793579 222.226395,349.934082 222.783142,349.015900 
z"/>
<path fill="#181818" opacity="1.000000" stroke="none" 
	d="
M253.542892,356.546936 
	C254.579834,355.922211 255.413177,355.576233 256.246490,355.230255 
	C256.289734,355.762085 256.332947,356.293884 256.376160,356.825714 
	C255.363861,356.825714 254.351578,356.825714 253.542892,356.546936 
z"/>
<path fill="#0E0E0E" opacity="1.000000" stroke="none" 
	d="
M211.681396,264.884705 
	C212.001007,265.451172 212.038773,265.907959 211.945190,266.688293 
	C210.735046,266.927368 209.656265,266.842957 208.577484,266.758514 
	C208.474915,266.407654 208.372345,266.056824 208.269775,265.705963 
	C209.313049,265.395660 210.356308,265.085358 211.681396,264.884705 
z"/>
<path fill="#080808" opacity="1.000000" stroke="none" 
	d="
M177.269470,291.988098 
	C176.494598,291.890778 175.921951,291.576172 175.349304,291.261597 
	C175.745590,290.888855 176.141861,290.516113 176.538147,290.143372 
	C176.849319,290.685852 177.160507,291.228363 177.269470,291.988098 
z"/>
<path fill="#0B0B0B" opacity="1.000000" stroke="none" 
	d="
M346.983582,355.539307 
	C347.094330,355.915436 346.954468,355.924927 346.990906,355.941803 
	C345.657990,355.551239 344.288635,355.143799 342.919312,354.736328 
	C343.027557,354.432465 343.135834,354.128601 343.244110,353.824768 
	C344.453705,354.270905 345.663269,354.717041 346.983582,355.539307 
z"/>
<path fill="#E2E2E2" opacity="1.000000" stroke="none" 
	d="
M202.297302,368.755676 
	C202.759247,368.509796 203.098999,368.272552 203.438751,368.035278 
	C203.410110,367.994263 203.381485,367.953217 203.352859,367.912170 
	C202.960281,368.196198 202.567703,368.480255 202.297302,368.755676 
z"/>
<path fill="#080808" opacity="1.000000" stroke="none" 
	d="
M186.813217,289.204407 
	C187.057449,289.764252 187.004166,290.262421 186.950882,290.760620 
	C186.504196,290.647400 186.057510,290.534210 185.610825,290.421021 
	C185.912460,289.994934 186.214081,289.568817 186.813217,289.204407 
z"/>
<path fill="#0B0B0B" opacity="1.000000" stroke="none" 
	d="
M307.776489,361.922180 
	C307.585907,360.984528 307.787872,359.801361 308.245178,358.385071 
	C308.390076,359.326874 308.279572,360.501740 307.776489,361.922180 
z"/>
<path fill="#0E0E0E" opacity="1.000000" stroke="none" 
	d="
M207.079773,281.116516 
	C207.175629,280.443207 207.640152,280.025269 208.106171,279.285217 
	C208.107681,278.963074 208.404236,278.946259 208.543716,278.997253 
	C208.748962,280.105560 208.814728,281.162872 208.741302,282.484375 
	C208.217545,282.289642 207.833008,281.830780 207.079773,281.116516 
z"/>
<path fill="#0B0B0B" opacity="1.000000" stroke="none" 
	d="
M339.686523,364.698425 
	C339.338989,364.671173 339.496307,364.589111 339.465820,364.608215 
	C339.701904,363.752319 339.968414,362.877289 340.234955,362.002258 
	C340.585144,362.163208 340.935303,362.324158 341.285492,362.485107 
	C340.868347,363.231964 340.451202,363.978821 339.686523,364.698425 
z"/>
<path fill="#0B0B0B" opacity="1.000000" stroke="none" 
	d="
M289.777008,348.048096 
	C290.026764,348.189362 289.988403,348.353210 289.971558,348.768555 
	C289.499817,349.118896 289.006622,349.217712 288.513428,349.316528 
	C288.838562,348.901245 289.163696,348.485962 289.777008,348.048096 
z"/>
<path fill="#0B0B0B" opacity="1.000000" stroke="none" 
	d="
M290.512817,360.717804 
	C290.512817,360.717804 290.516083,360.903351 290.532593,360.994354 
	C290.465576,360.095398 290.382050,359.105408 290.639252,358.057190 
	C291.047668,358.170288 291.115356,358.341583 290.834045,358.994751 
	C290.494324,359.890350 290.503571,360.304077 290.512817,360.717804 
z"/>
<path fill="#0B0B0B" opacity="1.000000" stroke="none" 
	d="
M317.033752,350.469055 
	C317.647034,350.552124 318.303314,350.924316 318.895813,351.653015 
	C318.246948,351.592377 317.661835,351.175323 317.033752,350.469055 
z"/>
<path fill="#0E0E0E" opacity="1.000000" stroke="none" 
	d="
M205.438934,271.497498 
	C204.944870,271.439301 204.644440,271.197388 204.343994,270.955475 
	C204.542435,270.766479 204.740860,270.577484 204.939301,270.388489 
	C205.170380,270.696930 205.401459,271.005371 205.438934,271.497498 
z"/>
<path fill="#060606" opacity="1.000000" stroke="none" 
	d="
M240.939468,278.478882 
	C240.535446,278.852631 240.062927,278.897186 239.234741,278.971191 
	C238.948441,278.430145 239.017822,277.859680 239.275955,277.063110 
	C239.933472,277.274567 240.402237,277.712097 240.939468,278.478882 
z"/>
<path fill="#060606" opacity="1.000000" stroke="none" 
	d="
M242.369263,271.105225 
	C242.195862,270.491333 242.327866,269.974487 242.693268,269.313812 
	C242.842667,269.847412 242.758682,270.524811 242.369263,271.105225 
z"/>
<path fill="#080808" opacity="1.000000" stroke="none" 
	d="
M170.647339,276.747498 
	C170.632233,276.999878 170.495819,277.137756 170.359390,277.275635 
	C170.414932,277.061432 170.470490,276.847229 170.647339,276.747498 
z"/>
<path fill="#0B0B0B" opacity="1.000000" stroke="none" 
	d="
M350.005646,350.409790 
	C350.253418,350.646454 350.509277,351.252167 350.436249,352.054810 
	C350.076172,351.760803 350.044952,351.269806 350.005646,350.409790 
z"/>
<path fill="#DDDDDD" opacity="1.000000" stroke="none" 
	d="
M316.977386,360.993469 
	C316.895264,361.447998 316.628754,361.731476 316.362213,362.014923 
	C316.241058,361.674866 316.119904,361.334808 316.200317,360.750305 
	C316.532318,360.611359 316.662659,360.716888 316.977386,360.993469 
z"/>
<path fill="#DDDDDD" opacity="1.000000" stroke="none" 
	d="
M223.505463,360.493408 
	C223.504532,360.512299 223.506409,360.474548 223.505463,360.493408 
z"/>
<path fill="#0B0B0B" opacity="1.000000" stroke="none" 
	d="
M314.466736,362.434753 
	C314.538239,362.390411 314.560883,362.574402 314.560883,362.574402 
	C314.560883,362.574402 314.395264,362.479126 314.466736,362.434753 
z"/>
<path fill="#080808" opacity="1.000000" stroke="none" 
	d="
M223.445953,364.533203 
	C223.409836,364.473450 223.482086,364.592987 223.445953,364.533203 
z"/>
<path fill="#181818" opacity="1.000000" stroke="none" 
	d="
M251.589325,358.579712 
	C251.504013,358.636749 251.464401,358.417175 251.464401,358.417175 
	C251.464401,358.417175 251.674637,358.522705 251.589325,358.579712 
z"/>
<path fill="#DDDDDD" opacity="1.000000" stroke="none" 
	d="
M192.494537,358.506592 
	C192.495468,358.487701 192.493591,358.525452 192.494537,358.506592 
z"/>
<path fill="#0B0B0B" opacity="1.000000" stroke="none" 
	d="
M290.544678,354.473389 
	C290.573456,354.523956 290.515869,354.422852 290.544678,354.473389 
z"/>
<path fill="#0B0B0B" opacity="1.000000" stroke="none" 
	d="
M343.052429,351.135132 
	C343.118622,351.137970 343.237213,351.275940 343.355804,351.413910 
	C343.272156,351.366028 343.188507,351.318176 343.052429,351.135132 
z"/>
<path fill="#E4E4E4" opacity="1.000000" stroke="none" 
	d="
M251.017059,352.015900 
	C251.191971,351.659729 251.482376,351.422028 251.772766,351.184296 
	C251.799103,351.460327 251.825470,351.736328 251.607788,352.191711 
	C251.363770,352.371094 251.132553,352.134369 251.017059,352.015900 
z"/>
<path fill="#0B0B0B" opacity="1.000000" stroke="none" 
	d="
M314.445435,350.546509 
	C314.397278,350.474335 314.592987,350.454803 314.592987,350.454803 
	C314.592987,350.454803 314.493591,350.618713 314.445435,350.546509 
z"/>
<path fill="#060606" opacity="1.000000" stroke="none" 
	d="
M252.543640,277.473022 
	C252.571808,277.522461 252.515472,277.423553 252.543640,277.473022 
z"/>
<path fill="#080808" opacity="1.000000" stroke="none" 
	d="
M174.397186,275.640320 
	C174.293686,275.879059 174.128433,276.105042 173.963181,276.331055 
	C173.957565,276.143890 173.951935,275.956696 174.123215,275.638062 
	C174.300110,275.506561 174.335434,275.627625 174.397186,275.640320 
z"/>
<path fill="#080808" opacity="1.000000" stroke="none" 
	d="
M175.454071,274.416504 
	C175.726074,274.765839 175.584427,275.170197 175.183914,275.733643 
	C174.963486,275.419006 175.001938,274.945282 175.454071,274.416504 
z"/>
<path fill="#0E0E0E" opacity="1.000000" stroke="none" 
	d="
M207.549637,268.472260 
	C207.582260,268.528381 207.517014,268.416138 207.549637,268.472260 
z"/>
<path fill="#060606" opacity="1.000000" stroke="none" 
	d="
M246.486038,264.362976 
	C246.282898,263.949097 246.482086,263.655243 246.897751,263.233337 
	C247.038940,263.564545 246.963654,264.023804 246.486038,264.362976 
z"/>
<path fill="#010101" opacity="1.000000" stroke="none" 
	d="
M253.842117,90.085609 
	C258.469452,90.439568 263.170380,90.387421 267.712616,91.210747 
	C309.812134,98.841698 347.362579,116.061226 379.750702,144.312973 
	C405.263947,166.567841 421.254120,195.031265 433.842285,225.807098 
	C434.585236,227.623459 435.323425,229.441788 436.457245,232.224960 
	C437.631470,227.973709 438.529236,224.723282 439.427032,221.472870 
	C452.855072,270.137970 449.616150,317.290619 426.264557,363.705872 
	C368.563782,272.245819 311.295624,181.471542 253.976593,90.372154 
	C253.925735,90.047050 253.842117,90.085609 253.842117,90.085609 
z"/>
<path fill="#010101" opacity="1.000000" stroke="none" 
	d="
M380.530609,127.757744 
	C381.230652,128.398621 381.495239,128.902039 381.759827,129.405441 
	C381.219025,129.458862 380.678223,129.512283 380.137451,129.565704 
	C380.123352,128.917221 380.109222,128.268753 380.530609,127.757744 
z"/>
<path fill="#010101" opacity="1.000000" stroke="none" 
	d="
M86.250000,384.750000 
	C86.300003,384.466675 86.599998,384.433319 86.900002,384.399994 
	C86.766670,384.600006 86.633331,384.799988 86.250000,384.750000 
z"/>
<path fill="#010101" opacity="1.000000" stroke="none" 
	d="
M253.964478,90.022186 
	C253.839539,89.825233 253.675842,89.653152 253.512161,89.481064 
	C253.758621,89.566422 254.005096,89.651772 254.046844,89.911369 
	C253.842117,90.085609 253.925735,90.047050 253.964478,90.022186 
z"/>
<path fill="#010101" opacity="1.000000" stroke="none" 
	d="
M311.532776,264.430481 
	C311.630951,263.582550 312.099213,263.114044 312.567505,262.645569 
	C312.733307,263.367157 312.899078,264.088715 312.891418,265.148926 
	C312.446289,265.261658 312.174561,265.035767 311.532776,264.430481 
z"/>
<path fill="#010101" opacity="1.000000" stroke="none" 
	d="
M290.779755,360.526001 
	C290.503571,360.304077 290.494324,359.890350 290.716095,359.244568 
	C290.980316,359.453064 291.013489,359.893646 290.779755,360.526001 
z"/>
</svg>